<svg version="1" xmlns="http://www.w3.org/2000/svg" width="400" height="400" viewBox="0 0 300.000000 300.000000"><path d="M100 10v10H60v20H40v20H20v200h20v20h20v20h40v-20h100v20h40v-20h20v-20h20V60h-20V40h-20V20h-40V0H100v10zm40 40v10h20V40h60v20h20v20h20v60h-20v20h-20v20H80v-20H60v-20H40V80h20V60h20V40h60v10zm-40 160v10H80v-20h20v10zm40 0v10h-20v-20h20v10zm40 0v10h-20v-20h20v10zm40 0v10h-20v-20h20v10zm-100 40v10h-20v-20h20v10zm40 0v10h-20v-20h20v10zm40 0v10h-20v-20h20v10z"/><path d="M80 120v20h40v-20h-20v-20H80v20zM180 120v20h40v-20h-20v-20h-20v20z"/></svg>